<svg width="26" height="16" viewBox="0 0 26 16" fill="none" xmlns="http://www.w3.org/2000/svg">
<path d="M7.63434 0H6.74805V15.9577H7.63434V0Z" fill="#1282A2"/>
<path d="M5.38934 0H4.94629V15.9577H5.38934V0Z" fill="#1282A2"/>
<path d="M10.3369 0H9.89355V15.9577H10.3369V0Z" fill="#1282A2"/>
<path d="M9.4364 0H8.99316V15.9577H9.4364V0Z" fill="#1282A2"/>
<path d="M1.80219 0H1.34473V15.9577H1.80219V0Z" fill="#1282A2"/>
<path d="M3.14539 0H2.70215V15.9577H3.14539V0Z" fill="#1282A2"/>
<path d="M0.900696 0H0V15.9691H0.900696V0Z" fill="#1282A2"/>
<path d="M11.2372 0H10.7939V15.9577H11.2372V0Z" fill="#1282A2"/>
<path d="M20.673 0H19.7725V15.9577H20.673V0Z" fill="#1282A2"/>
<path d="M23.3751 0H22.0312V15.9577H23.3751V0Z" fill="#1282A2"/>
<path d="M24.2757 0H23.8184V15.9577H24.2757V0Z" fill="#1282A2"/>
<path d="M25.6194 0H24.7188V15.9691H25.6194V0Z" fill="#1282A2"/>
<path d="M17.5276 0H16.627V15.9577H17.5276V0Z" fill="#1282A2"/>
<path d="M19.3285 0H18.4277V15.9577H19.3285V0Z" fill="#1282A2"/>
<path d="M15.7259 0H14.8252V15.9577H15.7259V0Z" fill="#1282A2"/>
<path d="M13.4819 0H12.5811V15.9577H13.4819V0Z" fill="#1282A2"/>
</svg>
