<svg width="24" height="16" viewBox="0 0 24 16" fill="none" xmlns="http://www.w3.org/2000/svg">
<path d="M13.4539 7.14487C13.4539 6.91376 13.6212 6.72461 13.8275 6.72461C14.0338 6.72461 14.2011 6.91283 14.2011 7.14487V15.5479C14.2011 15.7799 14.0338 15.9682 13.8275 15.9682L13.7893 15.9664L5.60797 15.9682C5.4025 15.9682 5.23594 15.7807 5.23594 15.5497H5.23438V7.14487C5.23438 6.91376 5.40172 6.72461 5.60801 6.72461C5.8143 6.72461 5.98165 6.91283 5.98165 7.14487V15.1312L13.454 15.1294V7.14487H13.4539Z" fill="#1282A2"/>
<path d="M4.11059 15.1278C4.31685 15.1278 4.48423 15.3159 4.48423 15.548C4.48423 15.78 4.31688 15.9682 4.11059 15.9682H0.373637C0.16738 15.9682 0 15.78 0 15.548V15.5366V5.46311C0 5.23111 0.167341 5.04285 0.373637 5.04285H0.383756H4.11372C4.31997 5.04285 4.48735 5.23107 4.48735 5.46311C4.48735 5.69515 4.32001 5.88337 4.11372 5.88337H0.747234V15.1277H4.11059V15.1278ZM15.323 5.88337C15.1168 5.88337 14.9494 5.69515 14.9494 5.46311C14.9494 5.23107 15.1167 5.04285 15.323 5.04285H19.0552C19.2615 5.04285 19.4288 5.23107 19.4288 5.46311V5.47361V15.5471C19.4288 15.7791 19.2615 15.9674 19.0552 15.9674H19.0451H15.3229C15.1167 15.9674 14.9493 15.7791 14.9493 15.5471C14.9493 15.3151 15.1166 15.1269 15.3229 15.1269H18.6808V5.88337H15.323Z" fill="#1282A2"/>
<path d="M9.71358 14.2882C8.89007 14.2882 8.14204 13.9109 7.60184 13.3033L7.60028 13.3015C7.0593 12.693 6.72461 11.8535 6.72461 10.9263C6.72461 9.99915 7.06008 9.15868 7.60028 8.55024L7.60106 8.54937L7.5995 8.54844C8.14048 7.93996 8.88772 7.56348 9.7128 7.56348C10.5363 7.56348 11.2843 7.9408 11.8253 8.55016L11.8261 8.54928C12.3671 9.15776 12.7018 9.99906 12.7018 10.927C12.7018 11.855 12.3672 12.6955 11.8261 13.304C11.2867 13.9109 10.5387 14.2882 9.71358 14.2882ZM8.12645 12.7088L8.12802 12.7106C8.53354 13.165 9.09398 13.4469 9.7128 13.4469C10.3316 13.4469 10.8921 13.1641 11.2976 12.708C11.7031 12.252 11.9545 11.6216 11.9545 10.9255C11.9545 10.2295 11.7031 9.59827 11.2976 9.14216L11.2984 9.14123L11.2976 9.14035C10.8936 8.68595 10.3324 8.4032 9.7128 8.4032C9.09398 8.4032 8.53354 8.68604 8.12802 9.14211L8.12724 9.14119C7.72324 9.59911 7.47185 10.2295 7.47185 10.9263C7.47185 11.6223 7.72249 12.2527 8.12645 12.7088Z" fill="#1282A2"/>
<path d="M1.86875 4.20155C1.6625 4.20155 1.49512 4.01332 1.49512 3.78129C1.49512 3.54925 1.66246 3.36102 1.86875 3.36102H4.86161C5.06786 3.36102 5.23524 3.54925 5.23524 3.78129C5.23524 4.01332 5.0679 4.20155 4.86161 4.20155H1.86875ZM16.8173 4.20155C16.6111 4.20155 16.4437 4.01332 16.4437 3.78129C16.4437 3.54925 16.6111 3.36102 16.8173 3.36102H20.5496C20.7559 3.36102 20.9232 3.54925 20.9232 3.78129V3.79179V8.81187V8.82238V11.3377V13.8661H20.176V11.3377V8.82242V8.81192V4.20155H16.8173Z" fill="#1282A2"/>
<path d="M3.3629 2.52058C3.15664 2.52058 2.98926 2.33235 2.98926 2.10031C2.98926 1.86828 3.15738 1.68005 3.3629 1.68005H6.35576C6.56202 1.68005 6.7294 1.86828 6.7294 2.10031C6.7294 2.33235 6.56205 2.52058 6.35576 2.52058H3.3629ZM18.3115 2.52058C18.1053 2.52058 17.9379 2.33235 17.9379 2.10031C17.9379 1.86828 18.1052 1.68005 18.3115 1.68005H22.0438C22.25 1.68005 22.4174 1.86828 22.4174 2.10031V2.1117V9.66111V9.67162V12.1861H21.6702V9.67162V9.66111V2.52058H18.3115Z" fill="#1282A2"/>
<path d="M4.8584 0.83696C4.65289 0.83696 4.48633 0.649616 4.48633 0.418458C4.48633 0.187344 4.65367 0 4.8584 0L7.8497 0.00175756C8.05517 0.00175756 8.22173 0.189101 8.22173 0.420216C8.22173 0.65133 8.05517 0.838674 7.8497 0.838674L4.8584 0.83696ZM19.8094 0.838717C19.6039 0.838717 19.4374 0.651374 19.4374 0.42026C19.4374 0.189146 19.6039 0.00180148 19.8094 0.00180148L23.5394 4.39223e-05C23.7449 4.39223e-05 23.9114 0.187387 23.9114 0.418502V0.429005L23.909 10.5059C23.909 10.7371 23.7424 10.9244 23.537 10.9244C23.3315 10.9244 23.1649 10.737 23.1649 10.5059L23.1673 0.83696L19.8094 0.838717Z" fill="#1282A2"/>
<path d="M6.5103 5.04293H13.6557L16.7684 0.840489H10.2472L6.5103 5.04293ZM13.8277 5.88342H5.60819C5.51246 5.88342 5.4167 5.84225 5.34356 5.76085C5.19798 5.59711 5.19798 5.33008 5.34356 5.16638L9.82695 0.123447C9.89544 0.047287 9.98886 0 10.0924 0H17.5639V0.00263672C17.6479 0.00175778 17.7328 0.0341469 17.8021 0.098925C17.9593 0.246016 17.9811 0.511281 17.8503 0.688168L14.1375 5.70047C14.069 5.81161 13.9562 5.88342 13.8277 5.88342Z" fill="#1282A2"/>
<path d="M3.36304 11.7676C3.05402 11.7676 2.77224 11.6258 2.57066 11.3982C2.36827 11.1705 2.24219 10.8545 2.24219 10.5069C2.24219 10.1585 2.36753 9.8433 2.57066 9.61482C2.77306 9.38713 3.05328 9.24536 3.36304 9.24536C3.67128 9.24536 3.95072 9.38722 4.1539 9.61482L4.15546 9.61658L4.1648 9.62699L4.16792 9.63143C4.3625 9.85819 4.48315 10.1664 4.48315 10.5061C4.48315 10.8536 4.35707 11.1705 4.15468 11.3972L4.12588 11.4288C3.92501 11.638 3.65725 11.7676 3.36304 11.7676ZM3.09915 10.8037C3.16608 10.8789 3.26028 10.9271 3.363 10.9271C3.45951 10.9271 3.54824 10.8868 3.61365 10.8212L3.62764 10.8046C3.69379 10.7285 3.73661 10.6224 3.73661 10.5069C3.73661 10.3905 3.69535 10.2854 3.6292 10.2093L3.62764 10.2076C3.56071 10.1332 3.4665 10.0867 3.363 10.0867C3.26024 10.0867 3.16608 10.134 3.09915 10.2102C3.03144 10.2864 2.9894 10.3915 2.9894 10.5079C2.9894 10.6224 3.03222 10.7284 3.09915 10.8037Z" fill="#1282A2"/>
<path d="M16.0661 11.7667C15.7579 11.7667 15.4777 11.6248 15.2754 11.3972L15.2746 11.3964L15.2738 11.3972C15.0714 11.1696 14.9453 10.8536 14.9453 10.506C14.9453 10.1593 15.0715 9.84413 15.2738 9.61658L15.2753 9.61482L15.2847 9.60431L15.2878 9.59992C15.4894 9.38107 15.764 9.24536 16.0661 9.24536C16.3743 9.24536 16.6545 9.38722 16.8577 9.61482L16.8592 9.61658L16.8686 9.62699L16.8717 9.63051C17.0662 9.85727 17.1868 10.1663 17.1868 10.5051C17.1868 10.8527 17.0608 11.1696 16.8585 11.3964L16.8281 11.4269C16.6289 11.6371 16.3604 11.7667 16.0661 11.7667ZM15.8007 10.8037C15.8677 10.8789 15.9619 10.9254 16.0661 10.9254C16.1627 10.9254 16.2514 10.8851 16.3168 10.8195L16.3307 10.8029C16.3977 10.7275 16.4405 10.6216 16.4405 10.506C16.4405 10.3896 16.3993 10.2846 16.3331 10.2084L16.3316 10.2066C16.2646 10.1322 16.1704 10.0858 16.0669 10.0858C15.9635 10.0858 15.87 10.1322 15.8024 10.2066L15.8008 10.2084C15.7347 10.2837 15.6934 10.3896 15.6934 10.506C15.6934 10.6216 15.7354 10.7275 15.8032 10.8029L15.8007 10.8037Z" fill="#1282A2"/>
<path d="M15.9893 5.46311C15.9893 5.23112 16.1566 5.04285 16.3629 5.04285C16.5692 5.04285 16.7365 5.23107 16.7365 5.46311C16.7365 6.18279 16.9957 6.83506 17.4137 7.30608C17.8332 7.77711 18.4131 8.06777 19.053 8.06777C19.2592 8.06777 19.4266 8.256 19.4266 8.488C19.4266 8.72004 19.2592 8.90826 19.053 8.90826C18.2084 8.90826 17.4425 8.52219 16.8883 7.8988L16.8867 7.89704C16.3325 7.27453 15.9893 6.41303 15.9893 5.46311Z" fill="#1282A2"/>
<path d="M2.69004 5.46311C2.69004 5.23112 2.85739 5.04285 3.06368 5.04285C3.26998 5.04285 3.43732 5.23107 3.43732 5.46311C3.43732 6.41214 3.09404 7.2728 2.53985 7.8979L2.53829 7.89966C1.98329 8.52388 1.21816 8.90912 0.374418 8.90912C0.16738 8.90912 0 8.72094 0 8.4889C0 8.25686 0.167341 8.06863 0.373637 8.06863C1.01425 8.06863 1.59336 7.77709 2.01134 7.30695L2.0129 7.30519C2.43085 6.835 2.69004 6.18362 2.69004 5.46311Z" fill="#1282A2"/>
<path d="M16.7365 15.5488C16.7365 15.7808 16.5692 15.9691 16.3629 15.9691C16.1566 15.9691 15.9893 15.7808 15.9893 15.5488C15.9893 14.5997 16.3325 13.7391 16.8867 13.1149L16.8883 13.1131C17.4433 12.4889 18.2092 12.1036 19.053 12.1036C19.2592 12.1036 19.4266 12.2919 19.4266 12.5239C19.4266 12.7559 19.2592 12.9441 19.053 12.9441C18.4123 12.9441 17.8332 13.2357 17.4153 13.7058L17.4137 13.7076C16.9957 14.1769 16.7365 14.8283 16.7365 15.5488Z" fill="#1282A2"/>
<path d="M3.43738 15.5488C3.43738 15.7808 3.27004 15.9691 3.06374 15.9691C2.85744 15.9691 2.6901 15.7808 2.6901 15.5488C2.6901 14.8292 2.4309 14.1768 2.01292 13.7076L2.01135 13.7058C1.59337 13.2357 1.01425 12.9441 0.373639 12.9441C0.167382 12.9441 0 12.7559 0 12.5239C0 12.2927 0.167342 12.1036 0.373639 12.1036C1.21738 12.1036 1.98256 12.4889 2.53753 13.1131L2.53909 13.1149C3.0941 13.7383 3.43738 14.5997 3.43738 15.5488Z" fill="#1282A2"/>
</svg>
