<svg width="23" height="21" viewBox="0 0 23 21" fill="none" xmlns="http://www.w3.org/2000/svg">
<g clip-path="url(#clip0_440:995)">
<path d="M7.01368 12.0251H13.461C13.6595 12.0251 13.8192 12.1761 13.8192 12.3636C13.8192 12.5512 13.6595 12.7022 13.461 12.7022H7.01368C6.81524 12.7022 6.65549 12.5512 6.65549 12.3636C6.65549 12.1761 6.81524 12.0251 7.01368 12.0251ZM10.2374 13.3793C9.44935 13.3793 8.80461 13.9887 8.80461 14.7335C8.80461 15.4784 9.44935 16.0878 10.2374 16.0878C11.0254 16.0878 11.6701 15.4784 11.6701 14.7335C11.6701 13.9887 11.0254 13.3793 10.2374 13.3793ZM10.2374 14.0564C10.6371 14.0564 10.9537 14.3557 10.9537 14.7335C10.9537 15.1114 10.6371 15.4107 10.2374 15.4107C9.83762 15.4107 9.52099 15.1114 9.52099 14.7335C9.52099 14.3557 9.83762 14.0564 10.2374 14.0564ZM10.2374 8.63949C9.44935 8.63949 8.80461 9.2489 8.80461 9.99372C8.80461 10.7386 9.44935 11.348 10.2374 11.348C11.0254 11.348 11.6701 10.7386 11.6701 9.99372C11.6701 9.2489 11.0254 8.63949 10.2374 8.63949ZM10.2374 9.31661C10.6371 9.31661 10.9537 9.61589 10.9537 9.99372C10.9537 10.3716 10.6371 10.6708 10.2374 10.6708C9.83762 10.6708 9.52099 10.3716 9.52099 9.99372C9.52099 9.61589 9.83762 9.31661 10.2374 9.31661ZM18.8339 2.54545C18.0458 2.54545 17.4011 3.15485 17.4011 3.89968C17.4011 4.64451 18.0458 5.25391 18.8339 5.25391C19.6219 5.25391 20.2666 4.64451 20.2666 3.89968C20.2666 3.15485 19.6219 2.54545 18.8339 2.54545ZM18.8339 3.22256C19.2336 3.22256 19.5502 3.52185 19.5502 3.89968C19.5502 4.27751 19.2336 4.5768 18.8339 4.5768C18.4341 4.5768 18.1175 4.27751 18.1175 3.89968C18.1175 3.52185 18.4341 3.22256 18.8339 3.22256ZM1.244 11.1245C0.823486 11.5172 0.826351 12.1686 1.244 12.5627L9.66856 20.5256C10.0841 20.9197 10.7732 20.9231 11.1894 20.5256L21.5955 10.5693C21.7724 10.4 21.9766 10.2443 22.1456 9.98966C22.314 9.73506 22.415 9.40057 22.415 8.94419V1.52977C22.415 0.972507 21.9293 0.514099 21.3404 0.514099H13.4603C12.6308 0.514099 12.1537 0.936619 11.7768 1.2894L1.244 11.1245ZM1.74761 11.6066L12.279 1.77083C12.6609 1.41466 12.8579 1.19122 13.461 1.19122H21.3412C21.5453 1.19122 21.6993 1.33612 21.6993 1.52977V8.94555C21.6993 9.31593 21.6327 9.49063 21.5389 9.63147C21.4458 9.77366 21.2924 9.89825 21.0876 10.0946L10.6786 20.0482C10.5375 20.1836 10.3205 20.1836 10.175 20.0469L1.75047 12.084C1.60505 11.9465 1.60362 11.74 1.74761 11.6059V11.6066Z" fill="#1282A2"/>
</g>
<defs>
<clipPath id="clip0_440:995">
<rect width="21.4912" height="20.3135" fill="white" transform="translate(0.924805 0.514099)"/>
</clipPath>
</defs>
</svg>
