<svg width="12" height="15" viewBox="0 0 12 15" fill="none" xmlns="http://www.w3.org/2000/svg">
<path d="M11.6308 6.83775C11.4376 6.64666 11.2032 6.55118 10.9271 6.55118H10.5961V4.58574C10.5961 3.33012 10.141 2.25201 9.23028 1.35123C8.31968 0.45041 7.22989 0 5.96036 0C4.69087 0 3.60086 0.45041 2.69034 1.35119C1.77966 2.25201 1.32447 3.33009 1.32447 4.58574V6.55118H0.993382C0.717527 6.55118 0.482918 6.64666 0.289736 6.83775C0.0965546 7.0287 0 7.26077 0 7.53389V13.4298C0 13.7027 0.0965909 13.9349 0.289736 14.126C0.482918 14.3169 0.717527 14.4125 0.993382 14.4125H10.9273C11.2034 14.4125 11.4378 14.317 11.6311 14.126C11.8241 13.9349 11.9208 13.7027 11.9208 13.4298V7.53378C11.921 7.26088 11.8241 7.02884 11.6308 6.83775ZM8.60942 6.55118H3.31131V4.58574C3.31131 3.86242 3.57006 3.2448 4.08744 2.73308C4.6049 2.22129 5.22917 1.96545 5.96047 1.96545C6.69185 1.96545 7.31597 2.22125 7.83347 2.73308C8.35071 3.24476 8.60942 3.86242 8.60942 4.58574V6.55118Z" fill="#1282A2"/>
</svg>
